<?xml version="1.0" encoding="UTF-8" standalone="no"?>
<!-- Generator: Adobe Illustrator 16.0.0, SVG Export Plug-In . SVG Version: 6.00 Build 0)  -->

<svg
   xmlns:dc="http://purl.org/dc/elements/1.1/"
   xmlns:cc="http://creativecommons.org/ns#"
   xmlns:rdf="http://www.w3.org/1999/02/22-rdf-syntax-ns#"
   xmlns:svg="http://www.w3.org/2000/svg"
   xmlns="http://www.w3.org/2000/svg"
   xmlns:sodipodi="http://sodipodi.sourceforge.net/DTD/sodipodi-0.dtd"
   xmlns:inkscape="http://www.inkscape.org/namespaces/inkscape"
   version="1.1"
   id="Capa_1"
   x="0px"
   y="0px"
   width="514.26404"
   height="528.80701"
   viewBox="0 0 514.26403 528.807"
   xml:space="preserve"
   inkscape:version="0.48.5 r10040"
   sodipodi:docname="form.svg"><metadata
   id="metadata41"><rdf:RDF><cc:Work
       rdf:about=""><dc:format>image/svg+xml</dc:format><dc:type
         rdf:resource="http://purl.org/dc/dcmitype/StillImage" /></cc:Work></rdf:RDF></metadata><defs
   id="defs39" /><sodipodi:namedview
   pagecolor="#ffffff"
   bordercolor="#666666"
   borderopacity="1"
   objecttolerance="10"
   gridtolerance="10"
   guidetolerance="10"
   inkscape:pageopacity="0"
   inkscape:pageshadow="2"
   inkscape:window-width="742"
   inkscape:window-height="480"
   id="namedview37"
   showgrid="false"
   inkscape:zoom="0.44628758"
   inkscape:cx="257.1325"
   inkscape:cy="264.4035"
   inkscape:window-x="0"
   inkscape:window-y="0"
   inkscape:window-maximized="0"
   inkscape:current-layer="Capa_1"
   fit-margin-top="0"
   fit-margin-left="0"
   fit-margin-right="0"
   fit-margin-bottom="0" />
<g
   id="g3"
   style="fill:#0a3f81;fill-opacity:1"
   transform="translate(-7.271,0)">
	<path
   d="m 513.74,204.829 -29.482,29.486 -82.147,-82.139 29.494,-29.489 c 9.292,-9.292 23.253,-10.441 31.138,-2.565 l 53.563,53.572 c 7.873,7.873 6.726,21.843 -2.566,31.135 z m -125.319,-38.97 82.147,82.147 -195.883,195.88 c -0.898,0.898 -3.393,3.393 -6.892,4.285 -0.405,0.195 -0.819,0.361 -1.229,0.491 l -102.23,32.58 c -2.861,0.904 -5.736,0.319 -7.601,-1.549 -1.871,-1.868 -2.45,-4.74 -1.555,-7.602 l 32.58,-102.221 c 0.139,-0.419 0.305,-0.827 0.491,-1.224 0.896,-3.505 3.384,-5.993 4.292,-6.897 l 36.812,-36.812 H 105.02 c -5.012,0 -9.079,-4.066 -9.079,-9.079 0,-5.023 4.066,-9.078 9.079,-9.078 h 142.491 l 140.91,-140.921 z m -139.004,271.715 -50.569,-50.561 -13.565,42.581 21.554,21.557 42.58,-13.577 z M 385.265,198.508 c -2.908,-2.911 -7.625,-2.911 -10.527,0 L 222.03,351.206 c -2.905,2.908 -2.905,7.625 0,10.533 2.905,2.908 7.625,2.908 10.53,0 L 385.265,209.04 c 2.907,-2.911 2.907,-7.627 0,-10.532 z m -9.228,290.709 c 0,5.455 -4.438,9.9 -9.895,9.9 H 185.956 l -16.275,5.189 c -3.269,1.041 -6.629,1.566 -9.992,1.566 -7.161,0 -13.819,-2.453 -19.266,-6.756 H 46.885 c -5.458,0 -9.909,-4.434 -9.909,-9.9 V 73.424 c 0,-5.458 4.445,-9.9 9.909,-9.9 h 37.12 v 15.675 c 0,5.464 4.43,9.897 9.903,9.897 5.471,0 9.901,-4.433 9.901,-9.897 V 63.523 h 56.92 v 15.675 c 0,5.464 4.43,9.897 9.901,9.897 5.473,0 9.903,-4.433 9.903,-9.897 V 63.523 h 49.497 v 15.675 c 0,5.464 4.43,9.897 9.904,9.897 5.47,0 9.9,-4.433 9.9,-9.897 V 63.523 h 54.453 v 15.675 c 0,5.464 4.427,9.897 9.895,9.897 5.473,0 9.906,-4.433 9.906,-9.897 V 63.523 h 42.072 c 5.45,0 9.896,4.442 9.896,9.9 v 68.571 l 10.379,-10.374 19.322,-19.325 V 73.424 c 0,-21.831 -17.762,-39.596 -39.597,-39.596 H 324.088 V 9.904 C 324.088,4.437 319.654,0 314.182,0 308.72,0 304.287,4.431 304.287,9.904 V 33.828 H 249.822 V 9.904 c 0,-5.467 -4.43,-9.904 -9.901,-9.904 -5.473,0 -9.903,4.431 -9.903,9.904 V 33.828 H 180.521 V 9.904 c 0,-5.467 -4.43,-9.904 -9.904,-9.904 -5.47,0 -9.9,4.431 -9.9,9.904 v 23.924 h -56.92 V 9.904 C 103.797,4.437 99.366,0 93.896,0 88.423,0 83.993,4.431 83.993,9.904 v 23.924 h -37.12 c -21.832,0 -39.602,17.765 -39.602,39.596 v 415.787 c 0,21.834 17.771,39.596 39.602,39.596 h 319.264 c 21.835,0 39.597,-17.762 39.597,-39.596 V 345.059 l -29.702,29.708 v 114.45 h 0.005 z M 298.707,152.436 H 105.02 c -5.012,0 -9.079,4.061 -9.079,9.079 0,5.019 4.066,9.079 9.079,9.079 h 193.687 c 5.013,0 9.079,-4.061 9.079,-9.079 0,-5.018 -4.066,-9.079 -9.079,-9.079 z m 0,73.199 H 105.02 c -5.012,0 -9.079,4.063 -9.079,9.079 0,5.019 4.066,9.079 9.079,9.079 h 193.687 c 5.013,0 9.079,-4.061 9.079,-9.079 0,-5.016 -4.066,-9.079 -9.079,-9.079 z"
   id="path5"
   style="fill:#0a3f81;fill-opacity:1"
   inkscape:connector-curvature="0" />
</g>
<g
   id="g7"
   transform="translate(-7.271,0)">
</g>
<g
   id="g9"
   transform="translate(-7.271,0)">
</g>
<g
   id="g11"
   transform="translate(-7.271,0)">
</g>
<g
   id="g13"
   transform="translate(-7.271,0)">
</g>
<g
   id="g15"
   transform="translate(-7.271,0)">
</g>
<g
   id="g17"
   transform="translate(-7.271,0)">
</g>
<g
   id="g19"
   transform="translate(-7.271,0)">
</g>
<g
   id="g21"
   transform="translate(-7.271,0)">
</g>
<g
   id="g23"
   transform="translate(-7.271,0)">
</g>
<g
   id="g25"
   transform="translate(-7.271,0)">
</g>
<g
   id="g27"
   transform="translate(-7.271,0)">
</g>
<g
   id="g29"
   transform="translate(-7.271,0)">
</g>
<g
   id="g31"
   transform="translate(-7.271,0)">
</g>
<g
   id="g33"
   transform="translate(-7.271,0)">
</g>
<g
   id="g35"
   transform="translate(-7.271,0)">
</g>
</svg>